<svg width="810" height="817" viewBox="0 0 810 817" fill="none" xmlns="http://www.w3.org/2000/svg">
<path d="M307.275 109.404C356.167 60.138 435.833 60.138 484.725 109.404L700.618 326.949C748.985 375.687 748.985 454.313 700.618 503.051L484.725 720.596C435.833 769.862 356.167 769.862 307.275 720.596L91.382 503.051C43.0148 454.313 43.0149 375.687 91.382 326.949L307.275 109.404Z" fill="url(#paint0_linear_32_175)"/>
<path d="M431.139 206.964C533.928 220.344 610.124 309.019 607.88 412.651V412.651C605.267 533.375 498.477 625.137 378.735 609.55V609.55C275.946 596.171 199.749 507.496 201.993 403.864V403.864C204.606 283.139 311.396 191.377 431.139 206.964V206.964Z" fill="url(#paint1_linear_32_175)"/>
<defs>
<linearGradient id="paint0_linear_32_175" x1="396" y1="20" x2="396" y2="810" gradientUnits="userSpaceOnUse">
<stop offset="0.479167" stop-color="#3332BB"/>
<stop offset="0.692708" stop-color="#6160FA"/>
</linearGradient>
<linearGradient id="paint1_linear_32_175" x1="611.824" y1="230.484" x2="198.049" y2="586.031" gradientUnits="userSpaceOnUse">
<stop offset="0.380208" stop-color="#29279F"/>
<stop offset="0.770833" stop-color="#6B4CD0"/>
</linearGradient>
</defs>
</svg>
